<svg version="1.2" xmlns="http://www.w3.org/2000/svg" viewBox="0 0 914 224" width="914" height="224"><style>tspan{white-space:pre}.a{fill:#2a3e4f}.b{fill:#1e93a3}.c{font-size: 26px;fill: #000000;font-weight: 400;font-family: "AbrilFatface-Regular", "Abril Fatface"}</style><path class="a" d="m351.7 102.9c0 10.2 6.3 11.9 9.2 11.9 5.3 0 8.5-4.3 8.5-8.4 0-4.6-3.7-6-17.2-11.7-6.2-2.5-21.5-8.7-21.5-25.2 0-17.7 16.1-27.1 30.8-27.1 12.1 0 29.2 6.2 29.5 27.3h-22.2c-0.4-2.9-1.2-8.5-8-8.5-4 0-7.8 2.7-7.8 6.9 0 4 2.4 5.1 18.2 12.2 16.4 7.4 20.5 15 20.5 25.2 0 14-7.3 28.1-30.6 28.1-23 0-32.3-13.5-31.7-30.7z"/><path class="a" d="m401.6 44.1h19.7v19.7 8.3c3.5-5.9 10.2-8.3 17.2-8.3 10.1 0 16 3.6 19.6 9.4 3.5 5.7 4.5 13.5 4.5 21.9v36.8h-19.7v-35.8c0-3.7-0.5-7.1-2-9.6-1.7-2.5-4.3-4.2-8.6-4.2-5.4 0-8.3 2.5-9.6 5.4-1.4 2.8-1.4 6-1.4 7.7v36.5h-19.7z"/><path fill-rule="evenodd" class="a" d="m473.5 98.8c0-16 11.5-34.9 35.5-34.9 24 0 35.5 18.9 35.5 35 0 16.2-11.5 35.1-35.5 35.1-24 0-35.5-18.9-35.5-35.1zm19.7 0.3c0 9.5 7.2 16.5 15.8 16.5 8.5 0 15.8-7 15.8-16.6 0-9.7-7.3-16.7-15.8-16.7-8.6 0-15.8 7-15.8 16.7z"/><path fill-rule="evenodd" class="a" d="m555.6 66.1h18.5v7.2c4.3-5 10.8-9.5 20.9-9.5 23.4 0 32.2 20.5 32.2 35.9 0 18.9-13.3 34.5-32.1 34.5-11.8 0-17.4-5.7-19.8-8.2v27.9h-19.7zm51.9 32.9c0-7.8-5.7-16.8-16.5-16.8-4.8 0-8.9 1.9-11.9 5-2.8 3-4.6 7.3-4.6 12 0 4.6 1.8 8.8 4.7 11.8 3 2.9 7.2 4.8 11.8 4.8 10.3 0 16.5-8.4 16.5-16.7z"/><path fill-rule="evenodd" class="a" d="m638.3 66.1h18.5v7.2c4.3-5 10.8-9.5 20.9-9.5 23.4 0 32.2 20.5 32.2 35.9 0 18.9-13.3 34.5-32 34.5-11.9 0-17.5-5.7-19.9-8.2v27.9h-19.7zm51.9 32.9c0-7.8-5.7-16.8-16.5-16.8-4.7 0-8.9 1.9-11.9 5-2.8 3-4.6 7.3-4.6 12 0 4.6 1.8 8.8 4.8 11.8 2.9 2.9 7.1 4.8 11.7 4.8 10.3 0 16.5-8.4 16.5-16.7z"/><path class="a" d="m721 44.1h19.8v15h-19.8zm0 21.9h19.8v65.9h-19.8z"/><path class="a" d="m755 66.1h18.4v7c2.2-3.2 6.4-9.3 18.1-9.3 22.2 0 24.5 18.1 24.5 27v41.1h-19.7v-35.9c0-7.3-1.6-13.7-10.3-13.7-9.8 0-11.3 7-11.3 13.8v35.8h-19.7z"/><path fill-rule="evenodd" class="a" d="m898.2 124c0 9.8-0.7 16.1-3.9 21.7-5.1 8.3-17.1 15.5-33.3 15.5-22.9 0-31.6-13.7-32.9-23.1h22.8c1.4 3.2 4 4.9 6.3 5.7 2.3 0.8 4.6 0.8 5.2 0.8 7.5 0 16-4.6 16-16v-3.9c-2.2 3.8-7.9 9.4-18.3 9.4-17.9 0-33.2-13.6-33.2-34.7 0-22.5 16.1-35.5 33.2-35.5 7.4 0 14.6 2.6 18.4 8.3v-6.1h19.7zm-51.6-25.2c0 10.5 7.6 16.9 15.8 16.9 4.9 0 8.7-1.7 11.5-4.6 2.7-2.8 4.4-6.7 4.6-11.3 0-4.9-1.4-9.3-4.1-12.4-2.6-3.2-6.7-5.1-11.9-5.1-8.4 0-15.9 6.8-15.9 16.4z"/><path class="b" d="m49.7 18.1l24.7-9.3 52.5 138.1h-28.3z"/><path class="b" d="m18.2 8.8h55.8v23.4h-55.8z"/><path class="b" d="m124.5 124.6l54.3-57.9h-76.6l-8.9-23.5h115.2l6.8 16.7-59.6 63.2h83.3l8.2 23.4h-114.4z"/><path class="b" d="m253.6 146.5l-38.3-103.3h29.3l24.7 65.1 23.1-65.1h30l-51.5 136.2h-31.4z"/><path class="b" d="m162.4 179.4c-7.2 0-13-5.8-13-13 0-7.2 5.8-13.1 13-13.1 7.2 0 13.1 5.9 13.1 13.1 0 7.2-5.9 13-13.1 13z"/><path class="b" d="m207.7 179.4c-7.2 0-13-5.8-13-13 0-7.2 5.8-13.1 13-13.1 7.2 0 13.1 5.9 13.1 13.1 0 7.2-5.9 13-13.1 13z"/><path class="b" d="m583.2 179.4h-304.2l4.3-11.3h299.9z"/><text style="transform:matrix(1,0,0,1,588.251,183.426)" ><tspan x="0" y="0" class="c">B</tspan><tspan  y="0" class="c">e</tspan><tspan  y="0" class="c">s</tspan><tspan  y="0" class="c">t</tspan><tspan  y="0" class="c"> </tspan><tspan  y="0" class="c">O</tspan><tspan  y="0" class="c">n</tspan><tspan  y="0" class="c">l</tspan><tspan  y="0" class="c">i</tspan><tspan  y="0" class="c">n</tspan><tspan  y="0" class="c">e</tspan><tspan  y="0" class="c"> </tspan><tspan  y="0" class="c">S</tspan><tspan  y="0" class="c">t</tspan><tspan  y="0" class="c">o</tspan><tspan  y="0" class="c">r</tspan><tspan  y="0" class="c">e</tspan><tspan  y="0" class="c"> </tspan><tspan  y="0" class="c">F</tspan><tspan  y="0" class="c">o</tspan><tspan  y="0" class="c">r</tspan><tspan  y="0" class="c"> </tspan><tspan  y="0" class="c">Y</tspan><tspan  y="0" class="c">o</tspan><tspan  y="0" class="c">u</tspan><tspan  y="0" class="c">
</tspan></text></svg>